# 
# Wavefront OBJ file
# Created with Kaydara FBX
# 
mtllib wheelshape2.mtl

g SketchUp
v 0.023031 -0.049590 -0.003392
v 0.023031 -0.048666 0.010113
v 0.023031 -0.049590 0.003392
v 0.023031 -0.048666 -0.010113
v 0.023031 -0.046836 0.016646
v 0.023031 -0.046836 -0.016646
v 0.023031 -0.044133 0.022868
v 0.023031 -0.044133 -0.022868
v 0.023031 -0.040608 0.028665
v 0.023031 -0.040608 -0.028665
v 0.023031 -0.036327 0.033927
v 0.023031 -0.036327 -0.033927
v 0.023031 -0.031369 0.038558
v 0.023031 -0.031369 -0.038558
v 0.023031 -0.025826 0.042470
v 0.023031 -0.025826 -0.042470
v 0.023031 -0.019803 0.045591
v 0.023031 -0.019803 -0.045591
v 0.023031 -0.013411 0.047863
v 0.023031 -0.013411 -0.047863
v 0.023031 -0.006768 0.049243
v 0.023031 -0.006768 -0.049243
v 0.023031 -0.000000 0.049706
v 0.023031 0.000000 -0.049706
v 0.023031 0.006768 0.049243
v 0.023031 0.006768 -0.049243
v 0.023031 0.013411 0.047863
v 0.023031 0.013411 -0.047863
v 0.023031 0.019803 0.045591
v 0.023031 0.019803 -0.045591
v 0.023031 0.025826 0.042470
v 0.023031 0.025826 -0.042470
v 0.023031 0.031369 0.038558
v 0.023031 0.031369 -0.038558
v 0.023031 0.036327 0.033927
v 0.023031 0.036327 -0.033927
v 0.023031 0.040608 0.028665
v 0.023031 0.040608 -0.028665
v 0.023031 0.044133 0.022868
v 0.023031 0.044133 -0.022868
v 0.023031 0.046836 0.016646
v 0.023031 0.046836 -0.016646
v 0.023031 0.048666 0.010113
v 0.023031 0.048666 -0.010113
v 0.023031 0.049590 0.003392
v 0.023031 0.049590 -0.003392
v 0.023031 0.025826 -0.042470
v -0.023031 0.019803 -0.045591
v -0.023031 0.025826 -0.042470
v 0.023031 0.019803 -0.045591
v 0.023031 0.031369 -0.038558
v -0.023031 0.031369 -0.038558
v 0.023031 0.036327 -0.033927
v -0.023031 0.036327 -0.033927
v -0.023031 0.040608 -0.028665
v 0.023031 0.040608 -0.028665
v -0.023031 0.044133 -0.022868
v 0.023031 0.044133 -0.022868
v -0.023031 0.046836 -0.016646
v 0.023031 0.046836 -0.016646
v -0.023031 0.048666 -0.010113
v 0.023031 0.048666 -0.010113
v -0.023031 0.049590 -0.003392
v 0.023031 0.049590 -0.003392
v -0.023031 0.049590 0.003392
v 0.023031 0.049590 0.003392
v -0.023031 0.048666 0.010113
v 0.023031 0.048666 0.010113
v -0.023031 0.046836 0.016646
v 0.023031 0.046836 0.016646
v -0.023031 0.044133 0.022868
v 0.023031 0.044133 0.022868
v -0.023031 0.040608 0.028665
v 0.023031 0.040608 0.028665
v -0.023031 0.036327 0.033927
v 0.023031 0.036327 0.033927
v 0.023031 0.031369 0.038558
v -0.023031 0.031369 0.038558
v 0.023031 0.025826 0.042470
v -0.023031 0.025826 0.042470
v 0.023031 0.019803 0.045591
v -0.023031 0.019803 0.045591
v 0.023031 0.013411 0.047863
v -0.023031 0.013411 0.047863
v 0.023031 0.006768 0.049243
v -0.023031 0.006768 0.049243
v 0.023031 -0.000000 0.049706
v -0.023031 -0.000000 0.049706
v 0.023031 -0.006768 0.049243
v -0.023031 -0.006768 0.049243
v 0.023031 -0.013411 0.047863
v -0.023031 -0.013411 0.047863
v 0.023031 -0.019803 0.045591
v -0.023031 -0.019803 0.045591
v 0.023031 -0.025826 0.042470
v -0.023031 -0.025826 0.042470
v 0.023031 -0.031369 0.038558
v -0.023031 -0.031369 0.038558
v 0.023031 -0.036327 0.033927
v -0.023031 -0.036327 0.033927
v -0.023031 -0.040608 0.028665
v 0.023031 -0.040608 0.028665
v -0.023031 -0.044133 0.022868
v 0.023031 -0.044133 0.022868
v -0.023031 -0.046836 0.016646
v 0.023031 -0.046836 0.016646
v -0.023031 -0.048666 0.010113
v 0.023031 -0.048666 0.010113
v -0.023031 -0.049590 0.003392
v 0.023031 -0.049590 0.003392
v -0.023031 -0.049590 -0.003392
v 0.023031 -0.049590 -0.003392
v -0.023031 -0.048666 -0.010113
v 0.023031 -0.048666 -0.010113
v -0.023031 -0.046836 -0.016646
v 0.023031 -0.046836 -0.016646
v -0.023031 -0.044133 -0.022868
v 0.023031 -0.044133 -0.022868
v -0.023031 -0.040608 -0.028665
v 0.023031 -0.040608 -0.028665
v -0.023031 -0.036327 -0.033927
v 0.023031 -0.036327 -0.033927
v 0.023031 -0.031369 -0.038558
v -0.023031 -0.031369 -0.038558
v 0.023031 -0.025826 -0.042470
v -0.023031 -0.025826 -0.042470
v 0.023031 -0.019803 -0.045591
v -0.023031 -0.019803 -0.045591
v 0.023031 -0.013411 -0.047863
v -0.023031 -0.013411 -0.047863
v 0.023031 -0.006768 -0.049243
v -0.023031 -0.006768 -0.049243
v 0.023031 0.000000 -0.049706
v -0.023031 0.000000 -0.049706
v 0.023031 0.006768 -0.049243
v -0.023031 0.006768 -0.049243
v 0.023031 0.013411 -0.047863
v -0.023031 0.013411 -0.047863
v -0.023031 -0.048666 0.010113
v -0.023031 -0.049590 -0.003392
v -0.023031 -0.049590 0.003392
v -0.023031 -0.048666 -0.010113
v -0.023031 -0.046836 0.016646
v -0.023031 -0.046836 -0.016646
v -0.023031 -0.044133 0.022868
v -0.023031 -0.044133 -0.022868
v -0.023031 -0.040608 0.028665
v -0.023031 -0.040608 -0.028665
v -0.023031 -0.036327 0.033927
v -0.023031 -0.036327 -0.033927
v -0.023031 -0.031369 0.038558
v -0.023031 -0.031369 -0.038558
v -0.023031 -0.025826 0.042470
v -0.023031 -0.025826 -0.042470
v -0.023031 -0.019803 0.045591
v -0.023031 -0.019803 -0.045591
v -0.023031 -0.013411 0.047863
v -0.023031 -0.013411 -0.047863
v -0.023031 -0.006768 0.049243
v -0.023031 -0.006768 -0.049243
v -0.023031 -0.000000 0.049706
v -0.023031 0.000000 -0.049706
v -0.023031 0.006768 0.049243
v -0.023031 0.006768 -0.049243
v -0.023031 0.013411 0.047863
v -0.023031 0.013411 -0.047863
v -0.023031 0.019803 0.045591
v -0.023031 0.019803 -0.045591
v -0.023031 0.025826 0.042470
v -0.023031 0.025826 -0.042470
v -0.023031 0.031369 0.038558
v -0.023031 0.031369 -0.038558
v -0.023031 0.036327 0.033927
v -0.023031 0.036327 -0.033927
v -0.023031 0.040608 0.028665
v -0.023031 0.040608 -0.028665
v -0.023031 0.044133 0.022868
v -0.023031 0.044133 -0.022868
v -0.023031 0.046836 0.016646
v -0.023031 0.046836 -0.016646
v -0.023031 0.048666 0.010113
v -0.023031 0.048666 -0.010113
v -0.023031 0.049590 0.003392
v -0.023031 0.049590 -0.003392
vn 1.000000 0.000000 0.000000
vn 1.000000 0.000000 0.000000
vn 1.000000 0.000000 0.000000
vn 1.000000 0.000000 0.000000
vn 1.000000 0.000000 0.000000
vn 1.000000 0.000000 0.000000
vn 1.000000 0.000000 0.000000
vn 1.000000 0.000000 0.000000
vn 1.000000 0.000000 0.000000
vn 1.000000 0.000000 0.000000
vn 1.000000 0.000000 0.000000
vn 1.000000 0.000000 0.000000
vn 1.000000 0.000000 0.000000
vn 1.000000 0.000000 0.000000
vn 1.000000 0.000000 0.000000
vn 1.000000 0.000000 0.000000
vn 1.000000 0.000000 0.000000
vn 1.000000 0.000000 0.000000
vn 1.000000 0.000000 0.000000
vn 1.000000 0.000000 0.000000
vn 1.000000 0.000000 0.000000
vn 1.000000 0.000000 0.000000
vn 1.000000 0.000000 0.000000
vn 1.000000 0.000000 0.000000
vn 1.000000 0.000000 0.000000
vn 1.000000 0.000000 0.000000
vn 1.000000 0.000000 0.000000
vn 1.000000 0.000000 0.000000
vn 1.000000 0.000000 0.000000
vn 1.000000 0.000000 0.000000
vn 1.000000 0.000000 0.000000
vn 1.000000 0.000000 0.000000
vn 1.000000 0.000000 0.000000
vn 1.000000 0.000000 0.000000
vn 1.000000 0.000000 0.000000
vn 1.000000 0.000000 0.000000
vn 1.000000 0.000000 0.000000
vn 1.000000 0.000000 0.000000
vn 1.000000 0.000000 0.000000
vn 1.000000 0.000000 0.000000
vn 1.000000 0.000000 0.000000
vn 1.000000 0.000000 0.000000
vn 1.000000 0.000000 0.000000
vn 1.000000 0.000000 0.000000
vn 1.000000 0.000000 0.000000
vn 1.000000 0.000000 0.000000
vn 0.000000 0.519584 -0.854419
vn 0.000000 0.398401 -0.917211
vn 0.000000 0.519584 -0.854419
vn 0.000000 0.398401 -0.917211
vn 0.000000 0.631088 -0.775711
vn 0.000000 0.631088 -0.775711
vn 0.000000 0.730836 -0.682553
vn 0.000000 0.730836 -0.682553
vn 0.000000 0.816970 -0.576680
vn 0.000000 0.816970 -0.576680
vn 0.000000 0.887885 -0.460065
vn 0.000000 0.887885 -0.460065
vn 0.000000 0.942261 -0.334880
vn 0.000000 0.942261 -0.334880
vn 0.000000 0.979084 -0.203456
vn 0.000000 0.979084 -0.203456
vn 0.000000 0.997669 -0.068242
vn 0.000000 0.997669 -0.068242
vn 0.000000 0.997669 0.068242
vn 0.000000 0.997669 0.068242
vn 0.000000 0.979084 0.203456
vn 0.000000 0.979084 0.203456
vn 0.000000 0.942261 0.334880
vn 0.000000 0.942261 0.334880
vn 0.000000 0.887885 0.460065
vn 0.000000 0.887885 0.460065
vn 0.000000 0.816970 0.576680
vn 0.000000 0.816970 0.576680
vn 0.000000 0.730836 0.682553
vn 0.000000 0.730836 0.682553
vn 0.000000 0.631088 0.775711
vn 0.000000 0.631088 0.775711
vn 0.000000 0.519584 0.854419
vn 0.000000 0.519584 0.854419
vn 0.000000 0.398401 0.917211
vn 0.000000 0.398401 0.917211
vn 0.000000 0.269797 0.962917
vn 0.000000 0.269797 0.962917
vn 0.000000 0.136167 0.990686
vn 0.000000 0.136167 0.990686
vn 0.000000 -0.000000 1.000000
vn 0.000000 -0.000000 1.000000
vn 0.000000 -0.136167 0.990686
vn 0.000000 -0.136167 0.990686
vn 0.000000 -0.269797 0.962917
vn 0.000000 -0.269797 0.962917
vn 0.000000 -0.398401 0.917211
vn 0.000000 -0.398401 0.917211
vn 0.000000 -0.519584 0.854419
vn 0.000000 -0.519584 0.854419
vn 0.000000 -0.631088 0.775711
vn 0.000000 -0.631088 0.775711
vn 0.000000 -0.730836 0.682553
vn 0.000000 -0.730836 0.682553
vn 0.000000 -0.816970 0.576680
vn 0.000000 -0.816970 0.576680
vn 0.000000 -0.887885 0.460065
vn 0.000000 -0.887885 0.460065
vn 0.000000 -0.942261 0.334880
vn 0.000000 -0.942261 0.334880
vn 0.000000 -0.979084 0.203456
vn 0.000000 -0.979084 0.203456
vn 0.000000 -0.997669 0.068242
vn 0.000000 -0.997669 0.068242
vn 0.000000 -0.997669 -0.068242
vn 0.000000 -0.997669 -0.068242
vn 0.000000 -0.979084 -0.203456
vn 0.000000 -0.979084 -0.203456
vn 0.000000 -0.942261 -0.334880
vn 0.000000 -0.942261 -0.334880
vn 0.000000 -0.887885 -0.460065
vn 0.000000 -0.887885 -0.460065
vn 0.000000 -0.816970 -0.576680
vn 0.000000 -0.816970 -0.576680
vn 0.000000 -0.730836 -0.682553
vn 0.000000 -0.730836 -0.682553
vn 0.000000 -0.631088 -0.775711
vn 0.000000 -0.631088 -0.775711
vn 0.000000 -0.519584 -0.854419
vn 0.000000 -0.519584 -0.854419
vn 0.000000 -0.398401 -0.917211
vn 0.000000 -0.398401 -0.917211
vn 0.000000 -0.269797 -0.962917
vn 0.000000 -0.269797 -0.962917
vn 0.000000 -0.136167 -0.990686
vn 0.000000 -0.136167 -0.990686
vn 0.000000 0.000000 -1.000000
vn 0.000000 0.000000 -1.000000
vn 0.000000 0.136167 -0.990686
vn 0.000000 0.136167 -0.990686
vn 0.000000 0.269797 -0.962917
vn 0.000000 0.269797 -0.962917
vn -1.000000 0.000000 0.000000
vn -1.000000 0.000000 0.000000
vn -1.000000 0.000000 0.000000
vn -1.000000 0.000000 0.000000
vn -1.000000 0.000000 0.000000
vn -1.000000 0.000000 0.000000
vn -1.000000 0.000000 0.000000
vn -1.000000 0.000000 0.000000
vn -1.000000 0.000000 0.000000
vn -1.000000 0.000000 0.000000
vn -1.000000 0.000000 0.000000
vn -1.000000 0.000000 0.000000
vn -1.000000 0.000000 0.000000
vn -1.000000 0.000000 0.000000
vn -1.000000 0.000000 0.000000
vn -1.000000 0.000000 0.000000
vn -1.000000 0.000000 0.000000
vn -1.000000 0.000000 0.000000
vn -1.000000 0.000000 0.000000
vn -1.000000 0.000000 0.000000
vn -1.000000 0.000000 0.000000
vn -1.000000 0.000000 0.000000
vn -1.000000 0.000000 0.000000
vn -1.000000 0.000000 0.000000
vn -1.000000 0.000000 0.000000
vn -1.000000 0.000000 0.000000
vn -1.000000 0.000000 0.000000
vn -1.000000 0.000000 0.000000
vn -1.000000 0.000000 0.000000
vn -1.000000 0.000000 0.000000
vn -1.000000 0.000000 0.000000
vn -1.000000 0.000000 0.000000
vn -1.000000 0.000000 0.000000
vn -1.000000 0.000000 0.000000
vn -1.000000 0.000000 0.000000
vn -1.000000 0.000000 0.000000
vn -1.000000 0.000000 0.000000
vn -1.000000 0.000000 0.000000
vn -1.000000 0.000000 0.000000
vn -1.000000 0.000000 0.000000
vn -1.000000 0.000000 0.000000
vn -1.000000 0.000000 0.000000
vn -1.000000 0.000000 0.000000
vn -1.000000 0.000000 0.000000
vn -1.000000 0.000000 0.000000
vn -1.000000 0.000000 0.000000
usemtl material
f 1//1 2//2 3//3
f 2//2 1//1 4//4
f 2//2 4//4 5//5
f 5//5 4//4 6//6
f 5//5 6//6 7//7
f 7//7 6//6 8//8
f 7//7 8//8 9//9
f 9//9 8//8 10//10
f 9//9 10//10 11//11
f 11//11 10//10 12//12
f 11//11 12//12 13//13
f 13//13 12//12 14//14
f 13//13 14//14 15//15
f 15//15 14//14 16//16
f 15//15 16//16 17//17
f 17//17 16//16 18//18
f 17//17 18//18 19//19
f 19//19 18//18 20//20
f 19//19 20//20 21//21
f 21//21 20//20 22//22
f 21//21 22//22 23//23
f 23//23 22//22 24//24
f 23//23 24//24 25//25
f 25//25 24//24 26//26
f 25//25 26//26 27//27
f 27//27 26//26 28//28
f 27//27 28//28 29//29
f 29//29 28//28 30//30
f 29//29 30//30 31//31
f 31//31 30//30 32//32
f 31//31 32//32 33//33
f 33//33 32//32 34//34
f 33//33 34//34 35//35
f 35//35 34//34 36//36
f 35//35 36//36 37//37
f 37//37 36//36 38//38
f 37//37 38//38 39//39
f 39//39 38//38 40//40
f 39//39 40//40 41//41
f 41//41 40//40 42//42
f 41//41 42//42 43//43
f 43//43 42//42 44//44
f 43//43 44//44 45//45
f 45//45 44//44 46//46
f 47//47 48//48 49//49
f 48//48 47//47 50//50
f 51//51 49//49 52//52
f 49//49 51//51 47//47
f 53//53 52//52 54//54
f 52//52 53//53 51//51
f 55//55 53//53 54//54
f 53//53 55//55 56//56
f 57//57 56//56 55//55
f 56//56 57//57 58//58
f 59//59 58//58 57//57
f 58//58 59//59 60//60
f 61//61 60//60 59//59
f 60//60 61//61 62//62
f 63//63 62//62 61//61
f 62//62 63//63 64//64
f 65//65 64//64 63//63
f 64//64 65//65 66//66
f 67//67 66//66 65//65
f 66//66 67//67 68//68
f 69//69 68//68 67//67
f 68//68 69//69 70//70
f 71//71 70//70 69//69
f 70//70 71//71 72//72
f 73//73 72//72 71//71
f 72//72 73//73 74//74
f 75//75 74//74 73//73
f 74//74 75//75 76//76
f 77//77 75//75 78//78
f 75//75 77//77 76//76
f 79//79 78//78 80//80
f 78//78 79//79 77//77
f 81//81 80//80 82//82
f 80//80 81//81 79//79
f 83//83 82//82 84//84
f 82//82 83//83 81//81
f 85//85 84//84 86//86
f 84//84 85//85 83//83
f 87//87 86//86 88//88
f 86//86 87//87 85//85
f 89//89 88//88 90//90
f 88//88 89//89 87//87
f 91//91 90//90 92//92
f 90//90 91//91 89//89
f 93//93 92//92 94//94
f 92//92 93//93 91//91
f 95//95 94//94 96//96
f 94//94 95//95 93//93
f 97//97 96//96 98//98
f 96//96 97//97 95//95
f 99//99 98//98 100//100
f 98//98 99//99 97//97
f 99//99 101//101 102//102
f 101//101 99//99 100//100
f 102//102 103//103 104//104
f 103//103 102//102 101//101
f 104//104 105//105 106//106
f 105//105 104//104 103//103
f 106//106 107//107 108//108
f 107//107 106//106 105//105
f 108//108 109//109 110//110
f 109//109 108//108 107//107
f 110//110 111//111 112//112
f 111//111 110//110 109//109
f 112//112 113//113 114//114
f 113//113 112//112 111//111
f 114//114 115//115 116//116
f 115//115 114//114 113//113
f 116//116 117//117 118//118
f 117//117 116//116 115//115
f 118//118 119//119 120//120
f 119//119 118//118 117//117
f 120//120 121//121 122//122
f 121//121 120//120 119//119
f 123//123 121//121 124//124
f 121//121 123//123 122//122
f 125//125 124//124 126//126
f 124//124 125//125 123//123
f 127//127 126//126 128//128
f 126//126 127//127 125//125
f 129//129 128//128 130//130
f 128//128 129//129 127//127
f 131//131 130//130 132//132
f 130//130 131//131 129//129
f 133//133 132//132 134//134
f 132//132 133//133 131//131
f 135//135 134//134 136//136
f 134//134 135//135 133//133
f 137//137 136//136 138//138
f 136//136 137//137 135//135
f 50//50 138//138 48//48
f 138//138 50//50 137//137
f 139//139 140//140 141//141
f 140//140 139//139 142//142
f 142//142 139//139 143//143
f 142//142 143//143 144//144
f 144//144 143//143 145//145
f 144//144 145//145 146//146
f 146//146 145//145 147//147
f 146//146 147//147 148//148
f 148//148 147//147 149//149
f 148//148 149//149 150//150
f 150//150 149//149 151//151
f 150//150 151//151 152//152
f 152//152 151//151 153//153
f 152//152 153//153 154//154
f 154//154 153//153 155//155
f 154//154 155//155 156//156
f 156//156 155//155 157//157
f 156//156 157//157 158//158
f 158//158 157//157 159//159
f 158//158 159//159 160//160
f 160//160 159//159 161//161
f 160//160 161//161 162//162
f 162//162 161//161 163//163
f 162//162 163//163 164//164
f 164//164 163//163 165//165
f 164//164 165//165 166//166
f 166//166 165//165 167//167
f 166//166 167//167 168//168
f 168//168 167//167 169//169
f 168//168 169//169 170//170
f 170//170 169//169 171//171
f 170//170 171//171 172//172
f 172//172 171//171 173//173
f 172//172 173//173 174//174
f 174//174 173//173 175//175
f 174//174 175//175 176//176
f 176//176 175//175 177//177
f 176//176 177//177 178//178
f 178//178 177//177 179//179
f 178//178 179//179 180//180
f 180//180 179//179 181//181
f 180//180 181//181 182//182
f 182//182 181//181 183//183
f 182//182 183//183 184//184
