# 
# Wavefront OBJ file
# Created with Kaydara FBX
# 
mtllib wheelshape.mtl

g SketchUp
v 0.023031 0.024853 -0.043047
v -0.023031 0.021984 -0.044580
v -0.023031 0.024853 -0.043047
v 0.023031 0.021984 -0.044580
v 0.023031 0.019022 -0.045922
v -0.023031 0.019022 -0.045922
v -0.023031 0.027615 -0.041329
v 0.023031 0.027615 -0.041329
v -0.023031 0.015978 -0.047068
v 0.023031 0.015978 -0.047068
v 0.023031 0.030259 -0.039435
v -0.023031 0.030259 -0.039435
v -0.023031 0.012865 -0.048012
v 0.023031 0.012865 -0.048012
v -0.023031 0.032774 -0.037371
v 0.023031 0.032774 -0.037371
v 0.023031 0.009697 -0.048751
v -0.023031 0.009697 -0.048751
v 0.023031 0.035148 -0.035148
v -0.023031 0.035148 -0.035148
v 0.023031 0.006488 -0.049281
v -0.023031 0.006488 -0.049281
v -0.023031 0.037371 -0.032774
v 0.023031 0.037371 -0.032774
v -0.023031 0.003251 -0.049600
v 0.023031 0.003251 -0.049600
v -0.023031 0.039435 -0.030259
v 0.023031 0.039435 -0.030259
v 0.023031 -0.000000 -0.049706
v -0.023031 -0.000000 -0.049706
v -0.023031 0.041329 -0.027615
v 0.023031 0.041329 -0.027615
v -0.023031 -0.003251 -0.049600
v 0.023031 -0.003251 -0.049600
v -0.023031 0.043047 -0.024853
v 0.023031 0.043047 -0.024853
v 0.023031 -0.006488 -0.049281
v -0.023031 -0.006488 -0.049281
v -0.023031 0.044580 -0.021984
v 0.023031 0.044580 -0.021984
v -0.023031 -0.009697 -0.048751
v 0.023031 -0.009697 -0.048751
v -0.023031 0.045922 -0.019022
v 0.023031 0.045922 -0.019022
v 0.023031 -0.012865 -0.048012
v -0.023031 -0.012865 -0.048012
v -0.023031 0.047068 -0.015978
v 0.023031 0.047068 -0.015978
v -0.023031 -0.015978 -0.047068
v 0.023031 -0.015978 -0.047068
v -0.023031 0.048012 -0.012865
v 0.023031 0.048012 -0.012865
v 0.023031 -0.019022 -0.045922
v -0.023031 -0.019022 -0.045922
v -0.023031 0.048751 -0.009697
v 0.023031 0.048751 -0.009697
v -0.023031 -0.021984 -0.044580
v 0.023031 -0.021984 -0.044580
v -0.023031 0.049281 -0.006488
v 0.023031 0.049281 -0.006488
v 0.023031 -0.024853 -0.043047
v -0.023031 -0.024853 -0.043047
v -0.023031 0.049600 -0.003251
v 0.023031 0.049600 -0.003251
v -0.023031 -0.027615 -0.041329
v 0.023031 -0.027615 -0.041329
v -0.023031 0.049706 -0.000000
v 0.023031 0.049706 -0.000000
v -0.023031 -0.030259 -0.039435
v 0.023031 -0.030259 -0.039435
v -0.023031 0.049600 0.003251
v 0.023031 0.049600 0.003251
v -0.023031 -0.032774 -0.037371
v 0.023031 -0.032774 -0.037371
v -0.023031 0.049281 0.006488
v 0.023031 0.049281 0.006488
v 0.023031 -0.035148 -0.035148
v -0.023031 -0.035148 -0.035148
v -0.023031 0.048751 0.009697
v 0.023031 0.048751 0.009697
v 0.023031 -0.037371 -0.032774
v -0.023031 -0.037371 -0.032774
v -0.023031 0.048012 0.012865
v 0.023031 0.048012 0.012865
v -0.023031 -0.039435 -0.030259
v 0.023031 -0.039435 -0.030259
v -0.023031 0.047068 0.015978
v 0.023031 0.047068 0.015978
v 0.023031 -0.041329 -0.027615
v -0.023031 -0.041329 -0.027615
v -0.023031 0.045922 0.019022
v 0.023031 0.045922 0.019022
v -0.023031 -0.043047 -0.024853
v 0.023031 -0.043047 -0.024853
v -0.023031 0.044580 0.021984
v 0.023031 0.044580 0.021984
v 0.023031 -0.044580 -0.021984
v -0.023031 -0.044580 -0.021984
v -0.023031 0.043047 0.024853
v 0.023031 0.043047 0.024853
v -0.023031 -0.045922 -0.019022
v 0.023031 -0.045922 -0.019022
v -0.023031 0.041329 0.027615
v 0.023031 0.041329 0.027615
v 0.023031 -0.047068 -0.015978
v -0.023031 -0.047068 -0.015978
v -0.023031 0.039435 0.030259
v 0.023031 0.039435 0.030259
v -0.023031 -0.048012 -0.012865
v 0.023031 -0.048012 -0.012865
v -0.023031 0.037371 0.032774
v 0.023031 0.037371 0.032774
v 0.023031 -0.048751 -0.009697
v -0.023031 -0.048751 -0.009697
v -0.023031 0.035148 0.035148
v 0.023031 0.035148 0.035148
v -0.023031 -0.049281 -0.006488
v 0.023031 -0.049281 -0.006488
v 0.023031 0.032774 0.037371
v -0.023031 0.032774 0.037371
v -0.023031 -0.049600 -0.003251
v 0.023031 -0.049600 -0.003251
v 0.023031 0.030259 0.039435
v -0.023031 0.030259 0.039435
v -0.023031 -0.049706 -0.000000
v 0.023031 -0.049706 -0.000000
v -0.023031 0.027615 0.041329
v 0.023031 0.027615 0.041329
v 0.023031 -0.049600 0.003251
v -0.023031 -0.049600 0.003251
v 0.023031 0.024853 0.043047
v -0.023031 0.024853 0.043047
v -0.023031 -0.049281 0.006488
v 0.023031 -0.049281 0.006488
v -0.023031 0.021984 0.044580
v 0.023031 0.021984 0.044580
v -0.023031 -0.048751 0.009697
v 0.023031 -0.048751 0.009697
v 0.023031 0.019022 0.045922
v -0.023031 0.019022 0.045922
v -0.023031 -0.048012 0.012865
v 0.023031 -0.048012 0.012865
v -0.023031 0.015978 0.047068
v 0.023031 0.015978 0.047068
v 0.023031 -0.047068 0.015978
v -0.023031 -0.047068 0.015978
v -0.023031 0.012865 0.048012
v 0.023031 0.012865 0.048012
v -0.023031 -0.045922 0.019022
v 0.023031 -0.045922 0.019022
v 0.023031 0.009697 0.048751
v -0.023031 0.009697 0.048751
v 0.023031 -0.044580 0.021984
v -0.023031 -0.044580 0.021984
v 0.023031 0.006488 0.049281
v -0.023031 0.006488 0.049281
v -0.023031 -0.043047 0.024853
v 0.023031 -0.043047 0.024853
v -0.023031 0.003251 0.049600
v 0.023031 0.003251 0.049600
v 0.023031 -0.041329 0.027615
v -0.023031 -0.041329 0.027615
v -0.023031 -0.000000 0.049706
v 0.023031 -0.000000 0.049706
v -0.023031 -0.039435 0.030259
v 0.023031 -0.039435 0.030259
v 0.023031 -0.003251 0.049600
v -0.023031 -0.003251 0.049600
v 0.023031 -0.037371 0.032774
v -0.023031 -0.037371 0.032774
v 0.023031 -0.006488 0.049281
v -0.023031 -0.006488 0.049281
v -0.023031 -0.035148 0.035148
v 0.023031 -0.035148 0.035148
v -0.023031 -0.009697 0.048751
v 0.023031 -0.009697 0.048751
v -0.023031 -0.032774 0.037371
v 0.023031 -0.032774 0.037371
v 0.023031 -0.012865 0.048012
v -0.023031 -0.012865 0.048012
v -0.023031 -0.030259 0.039435
v 0.023031 -0.030259 0.039435
v -0.023031 -0.015978 0.047068
v 0.023031 -0.015978 0.047068
v -0.023031 -0.027615 0.041329
v 0.023031 -0.027615 0.041329
v 0.023031 -0.019022 0.045922
v -0.023031 -0.019022 0.045922
v 0.023031 -0.024853 0.043047
v -0.023031 -0.024853 0.043047
v -0.023031 -0.021984 0.044580
v 0.023031 -0.021984 0.044580
vn 0.000000 0.500000 -0.866025
vn 0.000000 0.442289 -0.896873
vn 0.000000 0.500000 -0.866025
vn 0.000000 0.442289 -0.896873
vn 0.000000 0.382683 -0.923880
vn 0.000000 0.382683 -0.923880
vn 0.000000 0.555570 -0.831470
vn 0.000000 0.555570 -0.831470
vn 0.000000 0.321439 -0.946930
vn 0.000000 0.321439 -0.946930
vn 0.000000 0.608761 -0.793353
vn 0.000000 0.608761 -0.793353
vn 0.000000 0.258819 -0.965926
vn 0.000000 0.258819 -0.965926
vn 0.000000 0.659346 -0.751840
vn 0.000000 0.659346 -0.751840
vn 0.000000 0.195090 -0.980785
vn 0.000000 0.195090 -0.980785
vn 0.000000 0.707107 -0.707107
vn 0.000000 0.707107 -0.707107
vn 0.000000 0.130526 -0.991445
vn 0.000000 0.130526 -0.991445
vn 0.000000 0.751840 -0.659346
vn 0.000000 0.751840 -0.659346
vn 0.000000 0.065403 -0.997859
vn 0.000000 0.065403 -0.997859
vn -0.000000 0.793353 -0.608761
vn -0.000000 0.793353 -0.608761
vn 0.000000 -0.000000 -1.000000
vn 0.000000 -0.000000 -1.000000
vn -0.000000 0.831470 -0.555570
vn -0.000000 0.831470 -0.555570
vn 0.000000 -0.065403 -0.997859
vn 0.000000 -0.065403 -0.997859
vn -0.000000 0.866025 -0.500000
vn -0.000000 0.866025 -0.500000
vn 0.000000 -0.130526 -0.991445
vn 0.000000 -0.130526 -0.991445
vn -0.000000 0.896873 -0.442289
vn -0.000000 0.896873 -0.442289
vn 0.000000 -0.195090 -0.980785
vn 0.000000 -0.195090 -0.980785
vn -0.000000 0.923880 -0.382683
vn -0.000000 0.923880 -0.382683
vn 0.000000 -0.258819 -0.965926
vn 0.000000 -0.258819 -0.965926
vn -0.000000 0.946930 -0.321439
vn -0.000000 0.946930 -0.321439
vn 0.000000 -0.321439 -0.946930
vn 0.000000 -0.321439 -0.946930
vn -0.000000 0.965926 -0.258819
vn -0.000000 0.965926 -0.258819
vn 0.000000 -0.382683 -0.923880
vn 0.000000 -0.382683 -0.923880
vn -0.000000 0.980785 -0.195090
vn -0.000000 0.980785 -0.195090
vn 0.000000 -0.442289 -0.896873
vn 0.000000 -0.442289 -0.896873
vn -0.000000 0.991445 -0.130526
vn -0.000000 0.991445 -0.130526
vn 0.000000 -0.500000 -0.866025
vn 0.000000 -0.500000 -0.866025
vn -0.000000 0.997859 -0.065403
vn -0.000000 0.997859 -0.065403
vn 0.000000 -0.555570 -0.831470
vn 0.000000 -0.555570 -0.831470
vn -0.000000 1.000000 -0.000000
vn -0.000000 1.000000 -0.000000
vn -0.000000 -0.608761 -0.793353
vn -0.000000 -0.608761 -0.793353
vn -0.000000 0.997859 0.065403
vn -0.000000 0.997859 0.065403
vn 0.000000 -0.659346 -0.751840
vn 0.000000 -0.659346 -0.751840
vn -0.000000 0.991445 0.130526
vn -0.000000 0.991445 0.130526
vn 0.000000 -0.707107 -0.707107
vn 0.000000 -0.707107 -0.707107
vn -0.000000 0.980785 0.195090
vn -0.000000 0.980785 0.195090
vn -0.000000 -0.751840 -0.659346
vn -0.000000 -0.751840 -0.659346
vn -0.000000 0.965926 0.258819
vn -0.000000 0.965926 0.258819
vn -0.000000 -0.793353 -0.608761
vn -0.000000 -0.793353 -0.608761
vn -0.000000 0.946930 0.321439
vn -0.000000 0.946930 0.321439
vn -0.000000 -0.831470 -0.555570
vn -0.000000 -0.831470 -0.555570
vn -0.000000 0.923880 0.382683
vn -0.000000 0.923880 0.382683
vn 0.000000 -0.866025 -0.500000
vn 0.000000 -0.866025 -0.500000
vn -0.000000 0.896873 0.442289
vn -0.000000 0.896873 0.442289
vn -0.000000 -0.896873 -0.442289
vn -0.000000 -0.896873 -0.442289
vn -0.000000 0.866025 0.500000
vn -0.000000 0.866025 0.500000
vn -0.000000 -0.923880 -0.382683
vn -0.000000 -0.923880 -0.382683
vn -0.000000 0.831470 0.555570
vn -0.000000 0.831470 0.555570
vn -0.000000 -0.946930 -0.321439
vn -0.000000 -0.946930 -0.321439
vn -0.000000 0.793353 0.608761
vn -0.000000 0.793353 0.608761
vn 0.000000 -0.965926 -0.258819
vn 0.000000 -0.965926 -0.258819
vn -0.000000 0.751840 0.659346
vn -0.000000 0.751840 0.659346
vn -0.000000 -0.980785 -0.195090
vn -0.000000 -0.980785 -0.195090
vn -0.000000 0.707107 0.707107
vn -0.000000 0.707107 0.707107
vn -0.000000 -0.991445 -0.130526
vn -0.000000 -0.991445 -0.130526
vn -0.000000 0.659346 0.751840
vn -0.000000 0.659346 0.751840
vn -0.000000 -0.997859 -0.065403
vn -0.000000 -0.997859 -0.065403
vn -0.000000 0.608761 0.793353
vn -0.000000 0.608761 0.793353
vn -0.000000 -1.000000 -0.000000
vn -0.000000 -1.000000 -0.000000
vn -0.000000 0.555570 0.831470
vn -0.000000 0.555570 0.831470
vn -0.000000 -0.997859 0.065403
vn -0.000000 -0.997859 0.065403
vn -0.000000 0.500000 0.866025
vn -0.000000 0.500000 0.866025
vn -0.000000 -0.991445 0.130526
vn -0.000000 -0.991445 0.130526
vn -0.000000 0.442289 0.896873
vn -0.000000 0.442289 0.896873
vn -0.000000 -0.980785 0.195090
vn -0.000000 -0.980785 0.195090
vn -0.000000 0.382683 0.923880
vn -0.000000 0.382683 0.923880
vn -0.000000 -0.965926 0.258819
vn -0.000000 -0.965926 0.258819
vn -0.000000 0.321439 0.946930
vn -0.000000 0.321439 0.946930
vn -0.000000 -0.946930 0.321439
vn -0.000000 -0.946930 0.321439
vn -0.000000 0.258819 0.965926
vn -0.000000 0.258819 0.965926
vn -0.000000 -0.923880 0.382683
vn -0.000000 -0.923880 0.382683
vn -0.000000 0.195090 0.980785
vn -0.000000 0.195090 0.980785
vn -0.000000 -0.896873 0.442289
vn -0.000000 -0.896873 0.442289
vn -0.000000 0.130526 0.991445
vn -0.000000 0.130526 0.991445
vn -0.000000 -0.866025 0.500000
vn -0.000000 -0.866025 0.500000
vn -0.000000 0.065403 0.997859
vn -0.000000 0.065403 0.997859
vn -0.000000 -0.831470 0.555570
vn -0.000000 -0.831470 0.555570
vn -0.000000 0.000000 1.000000
vn -0.000000 0.000000 1.000000
vn -0.000000 -0.793353 0.608761
vn -0.000000 -0.793353 0.608761
vn -0.000000 -0.065403 0.997859
vn -0.000000 -0.065403 0.997859
vn -0.000000 -0.751840 0.659346
vn -0.000000 -0.751840 0.659346
vn -0.000000 -0.130526 0.991445
vn -0.000000 -0.130526 0.991445
vn -0.000000 -0.707107 0.707107
vn -0.000000 -0.707107 0.707107
vn -0.000000 -0.195090 0.980785
vn -0.000000 -0.195090 0.980785
vn -0.000000 -0.659346 0.751840
vn -0.000000 -0.659346 0.751840
vn -0.000000 -0.258819 0.965926
vn -0.000000 -0.258819 0.965926
vn -0.000000 -0.608761 0.793353
vn -0.000000 -0.608761 0.793353
vn -0.000000 -0.321439 0.946930
vn -0.000000 -0.321439 0.946930
vn -0.000000 -0.555570 0.831470
vn -0.000000 -0.555570 0.831470
vn -0.000000 -0.382683 0.923880
vn -0.000000 -0.382683 0.923880
vn -0.000000 -0.500000 0.866025
vn -0.000000 -0.500000 0.866025
vn -0.000000 -0.442289 0.896873
vn -0.000000 -0.442289 0.896873
usemtl Color_009_
f 1//1 2//2 3//3
f 2//2 1//1 4//4
f 2//2 5//5 6//6
f 5//5 2//2 4//4
f 7//7 1//1 3//3
f 1//1 7//7 8//8
f 5//5 9//9 6//6
f 9//9 5//5 10//10
f 11//11 7//7 12//12
f 7//7 11//11 8//8
f 10//10 13//13 9//9
f 13//13 10//10 14//14
f 15//15 11//11 12//12
f 11//11 15//15 16//16
f 13//13 17//17 18//18
f 17//17 13//13 14//14
f 19//19 15//15 20//20
f 15//15 19//19 16//16
f 18//18 21//21 22//22
f 21//21 18//18 17//17
f 23//23 19//19 20//20
f 19//19 23//23 24//24
f 21//21 25//25 22//22
f 25//25 21//21 26//26
f 27//27 24//24 23//23
f 24//24 27//27 28//28
f 25//25 29//29 30//30
f 29//29 25//25 26//26
f 31//31 28//28 27//27
f 28//28 31//31 32//32
f 29//29 33//33 30//30
f 33//33 29//29 34//34
f 35//35 32//32 31//31
f 32//32 35//35 36//36
f 33//33 37//37 38//38
f 37//37 33//33 34//34
f 39//39 36//36 35//35
f 36//36 39//39 40//40
f 37//37 41//41 38//38
f 41//41 37//37 42//42
f 43//43 40//40 39//39
f 40//40 43//43 44//44
f 41//41 45//45 46//46
f 45//45 41//41 42//42
f 47//47 44//44 43//43
f 44//44 47//47 48//48
f 45//45 49//49 46//46
f 49//49 45//45 50//50
f 51//51 48//48 47//47
f 48//48 51//51 52//52
f 49//49 53//53 54//54
f 53//53 49//49 50//50
f 55//55 52//52 51//51
f 52//52 55//55 56//56
f 53//53 57//57 54//54
f 57//57 53//53 58//58
f 59//59 56//56 55//55
f 56//56 59//59 60//60
f 57//57 61//61 62//62
f 61//61 57//57 58//58
f 63//63 60//60 59//59
f 60//60 63//63 64//64
f 61//61 65//65 62//62
f 65//65 61//61 66//66
f 67//67 64//64 63//63
f 64//64 67//67 68//68
f 66//66 69//69 65//65
f 69//69 66//66 70//70
f 71//71 68//68 67//67
f 68//68 71//71 72//72
f 70//70 73//73 69//69
f 73//73 70//70 74//74
f 75//75 72//72 71//71
f 72//72 75//75 76//76
f 73//73 77//77 78//78
f 77//77 73//73 74//74
f 79//79 76//76 75//75
f 76//76 79//79 80//80
f 81//81 78//78 77//77
f 78//78 81//81 82//82
f 83//83 80//80 79//79
f 80//80 83//83 84//84
f 81//81 85//85 82//82
f 85//85 81//81 86//86
f 87//87 84//84 83//83
f 84//84 87//87 88//88
f 89//89 85//85 86//86
f 85//85 89//89 90//90
f 91//91 88//88 87//87
f 88//88 91//91 92//92
f 89//89 93//93 90//90
f 93//93 89//89 94//94
f 95//95 92//92 91//91
f 92//92 95//95 96//96
f 97//97 93//93 94//94
f 93//93 97//97 98//98
f 99//99 96//96 95//95
f 96//96 99//99 100//100
f 97//97 101//101 98//98
f 101//101 97//97 102//102
f 103//103 100//100 99//99
f 100//100 103//103 104//104
f 105//105 101//101 102//102
f 101//101 105//105 106//106
f 107//107 104//104 103//103
f 104//104 107//107 108//108
f 105//105 109//109 106//106
f 109//109 105//105 110//110
f 111//111 108//108 107//107
f 108//108 111//111 112//112
f 113//113 109//109 110//110
f 109//109 113//113 114//114
f 115//115 112//112 111//111
f 112//112 115//115 116//116
f 113//113 117//117 114//114
f 117//117 113//113 118//118
f 119//119 115//115 120//120
f 115//115 119//119 116//116
f 118//118 121//121 117//117
f 121//121 118//118 122//122
f 123//123 120//120 124//124
f 120//120 123//123 119//119
f 122//122 125//125 121//121
f 125//125 122//122 126//126
f 127//127 123//123 124//124
f 123//123 127//127 128//128
f 129//129 125//125 126//126
f 125//125 129//129 130//130
f 131//131 127//127 132//132
f 127//127 131//131 128//128
f 129//129 133//133 130//130
f 133//133 129//129 134//134
f 135//135 131//131 132//132
f 131//131 135//135 136//136
f 134//134 137//137 133//133
f 137//137 134//134 138//138
f 139//139 135//135 140//140
f 135//135 139//139 136//136
f 138//138 141//141 137//137
f 141//141 138//138 142//142
f 143//143 139//139 140//140
f 139//139 143//143 144//144
f 145//145 141//141 142//142
f 141//141 145//145 146//146
f 147//147 144//144 143//143
f 144//144 147//147 148//148
f 145//145 149//149 146//146
f 149//149 145//145 150//150
f 151//151 147//147 152//152
f 147//147 151//151 148//148
f 153//153 149//149 150//150
f 149//149 153//153 154//154
f 155//155 152//152 156//156
f 152//152 155//155 151//151
f 153//153 157//157 154//154
f 157//157 153//153 158//158
f 159//159 155//155 156//156
f 155//155 159//159 160//160
f 161//161 157//157 158//158
f 157//157 161//161 162//162
f 163//163 160//160 159//159
f 160//160 163//163 164//164
f 161//161 165//165 162//162
f 165//165 161//161 166//166
f 167//167 163//163 168//168
f 163//163 167//167 164//164
f 169//169 165//165 166//166
f 165//165 169//169 170//170
f 171//171 168//168 172//172
f 168//168 171//171 167//167
f 169//169 173//173 170//170
f 173//173 169//169 174//174
f 175//175 171//171 172//172
f 171//171 175//175 176//176
f 174//174 177//177 173//173
f 177//177 174//174 178//178
f 179//179 175//175 180//180
f 175//175 179//179 176//176
f 178//178 181//181 177//177
f 181//181 178//178 182//182
f 183//183 179//179 180//180
f 179//179 183//183 184//184
f 182//182 185//185 181//181
f 185//185 182//182 186//186
f 187//187 183//183 188//188
f 183//183 187//187 184//184
f 185//185 189//189 190//190
f 189//189 185//185 186//186
f 191//191 187//187 188//188
f 187//187 191//191 192//192
f 189//189 191//191 190//190
f 191//191 189//189 192//192
