# 
# Wavefront OBJ file
# Created with Kaydara FBX
# 
mtllib wheelshape4.mtl

g SketchUp
v -0.021260 -0.045669 0.006012
v -0.021260 -0.045669 -0.006012
v -0.021260 -0.046063 0.000000
v -0.021260 -0.044493 -0.011922
v -0.021260 -0.044493 0.011922
v -0.021260 -0.042557 -0.017628
v -0.021260 -0.042557 0.017628
v -0.021260 -0.039892 -0.023031
v -0.021260 -0.039892 0.023031
v -0.021260 -0.036544 -0.028041
v -0.021260 -0.036544 0.028041
v -0.021260 -0.032571 -0.032571
v -0.021260 -0.032571 0.032571
v -0.021260 -0.028041 -0.036544
v -0.021260 -0.028041 0.036544
v -0.021260 -0.023031 -0.039892
v -0.021260 -0.023031 0.039892
v -0.021260 -0.017628 -0.042557
v -0.021260 -0.017628 0.042557
v -0.021260 -0.011922 -0.044493
v -0.021260 -0.011922 0.044493
v -0.021260 -0.006012 -0.045669
v -0.021260 -0.006012 0.045669
v -0.021260 -0.000000 -0.046063
v -0.021260 0.000000 0.046063
v -0.021260 0.006012 -0.045669
v -0.021260 0.006012 0.045669
v -0.021260 0.011922 -0.044493
v -0.021260 0.011922 0.044493
v -0.021260 0.017628 -0.042557
v -0.021260 0.017628 0.042557
v -0.021260 0.023031 -0.039892
v -0.021260 0.023031 0.039892
v -0.021260 0.028041 -0.036544
v -0.021260 0.028041 0.036544
v -0.021260 0.032571 -0.032571
v -0.021260 0.032571 0.032571
v -0.021260 0.036544 -0.028041
v -0.021260 0.036544 0.028041
v -0.021260 0.039892 -0.023031
v -0.021260 0.039892 0.023031
v -0.021260 0.042557 -0.017628
v -0.021260 0.042557 0.017628
v -0.021260 0.044493 -0.011922
v -0.021260 0.044493 0.011922
v -0.021260 0.045669 -0.006012
v -0.021260 0.045669 0.006012
v -0.021260 0.046063 0.000000
v -0.021260 0.011922 0.044493
v 0.021260 0.017628 0.042557
v -0.021260 0.017628 0.042557
v 0.021260 0.011922 0.044493
v 0.021260 0.023031 0.039892
v -0.021260 0.023031 0.039892
v 0.021260 0.028041 0.036544
v -0.021260 0.028041 0.036544
v 0.021260 0.032571 0.032571
v -0.021260 0.032571 0.032571
v -0.021260 0.036544 0.028041
v 0.021260 0.036544 0.028041
v -0.021260 0.039892 0.023031
v 0.021260 0.039892 0.023031
v -0.021260 0.042557 0.017628
v 0.021260 0.042557 0.017628
v -0.021260 0.044493 0.011922
v 0.021260 0.044493 0.011922
v -0.021260 0.045669 0.006012
v 0.021260 0.045669 0.006012
v -0.021260 0.046063 0.000000
v 0.021260 0.046063 -0.000000
v -0.021260 0.045669 -0.006012
v 0.021260 0.045669 -0.006012
v -0.021260 0.044493 -0.011922
v 0.021260 0.044493 -0.011922
v -0.021260 0.042557 -0.017628
v 0.021260 0.042557 -0.017628
v -0.021260 0.039892 -0.023031
v 0.021260 0.039892 -0.023031
v -0.021260 0.036544 -0.028041
v 0.021260 0.036544 -0.028041
v -0.021260 0.032571 -0.032571
v 0.021260 0.032571 -0.032571
v 0.021260 0.028041 -0.036544
v -0.021260 0.028041 -0.036544
v 0.021260 0.023031 -0.039892
v -0.021260 0.023031 -0.039892
v 0.021260 0.017628 -0.042557
v -0.021260 0.017628 -0.042557
v 0.021260 0.011922 -0.044493
v -0.021260 0.011922 -0.044493
v 0.021260 0.006012 -0.045669
v -0.021260 0.006012 -0.045669
v 0.021260 -0.000000 -0.046063
v -0.021260 -0.000000 -0.046063
v -0.021260 -0.006012 -0.045669
v 0.021260 -0.006012 -0.045669
v -0.021260 -0.011922 -0.044493
v 0.021260 -0.011922 -0.044493
v -0.021260 -0.017628 -0.042557
v 0.021260 -0.017628 -0.042557
v -0.021260 -0.023031 -0.039892
v 0.021260 -0.023031 -0.039892
v -0.021260 -0.028041 -0.036544
v 0.021260 -0.028041 -0.036544
v -0.021260 -0.032571 -0.032571
v 0.021260 -0.032571 -0.032571
v 0.021260 -0.036544 -0.028041
v -0.021260 -0.036544 -0.028041
v 0.021260 -0.039892 -0.023031
v -0.021260 -0.039892 -0.023031
v 0.021260 -0.042557 -0.017628
v -0.021260 -0.042557 -0.017628
v 0.021260 -0.044493 -0.011922
v -0.021260 -0.044493 -0.011922
v 0.021260 -0.045669 -0.006012
v -0.021260 -0.045669 -0.006012
v 0.021260 -0.046063 -0.000000
v -0.021260 -0.046063 0.000000
v 0.021260 -0.045669 0.006012
v -0.021260 -0.045669 0.006012
v 0.021260 -0.044493 0.011922
v -0.021260 -0.044493 0.011922
v 0.021260 -0.042557 0.017628
v -0.021260 -0.042557 0.017628
v 0.021260 -0.039892 0.023031
v -0.021260 -0.039892 0.023031
v 0.021260 -0.036544 0.028041
v -0.021260 -0.036544 0.028041
v 0.021260 -0.032571 0.032571
v -0.021260 -0.032571 0.032571
v -0.021260 -0.028041 0.036544
v 0.021260 -0.028041 0.036544
v -0.021260 -0.023031 0.039892
v 0.021260 -0.023031 0.039892
v -0.021260 -0.017628 0.042557
v 0.021260 -0.017628 0.042557
v -0.021260 -0.011922 0.044493
v 0.021260 -0.011922 0.044493
v -0.021260 -0.006012 0.045669
v 0.021260 -0.006012 0.045669
v -0.021260 0.000000 0.046063
v 0.021260 0.000000 0.046063
v 0.021260 0.006012 0.045669
v -0.021260 0.006012 0.045669
v 0.021260 -0.045669 -0.006012
v 0.021260 -0.045669 0.006012
v 0.021260 -0.046063 -0.000000
v 0.021260 -0.044493 -0.011922
v 0.021260 -0.044493 0.011922
v 0.021260 -0.042557 -0.017628
v 0.021260 -0.042557 0.017628
v 0.021260 -0.039892 -0.023031
v 0.021260 -0.039892 0.023031
v 0.021260 -0.036544 -0.028041
v 0.021260 -0.036544 0.028041
v 0.021260 -0.032571 -0.032571
v 0.021260 -0.032571 0.032571
v 0.021260 -0.028041 -0.036544
v 0.021260 -0.028041 0.036544
v 0.021260 -0.023031 -0.039892
v 0.021260 -0.023031 0.039892
v 0.021260 -0.017628 -0.042557
v 0.021260 -0.017628 0.042557
v 0.021260 -0.011922 -0.044493
v 0.021260 -0.011922 0.044493
v 0.021260 -0.006012 -0.045669
v 0.021260 -0.006012 0.045669
v 0.021260 -0.000000 -0.046063
v 0.021260 0.000000 0.046063
v 0.021260 0.006012 -0.045669
v 0.021260 0.006012 0.045669
v 0.021260 0.011922 -0.044493
v 0.021260 0.011922 0.044493
v 0.021260 0.017628 -0.042557
v 0.021260 0.017628 0.042557
v 0.021260 0.023031 -0.039892
v 0.021260 0.023031 0.039892
v 0.021260 0.028041 -0.036544
v 0.021260 0.028041 0.036544
v 0.021260 0.032571 -0.032571
v 0.021260 0.032571 0.032571
v 0.021260 0.036544 -0.028041
v 0.021260 0.036544 0.028041
v 0.021260 0.039892 -0.023031
v 0.021260 0.039892 0.023031
v 0.021260 0.042557 -0.017628
v 0.021260 0.042557 0.017628
v 0.021260 0.044493 -0.011922
v 0.021260 0.044493 0.011922
v 0.021260 0.045669 -0.006012
v 0.021260 0.045669 0.006012
v 0.021260 0.046063 -0.000000
vn -1.000000 0.000000 0.000000
vn -1.000000 0.000000 0.000000
vn -1.000000 0.000000 0.000000
vn -1.000000 0.000000 0.000000
vn -1.000000 0.000000 0.000000
vn -1.000000 0.000000 0.000000
vn -1.000000 0.000000 0.000000
vn -1.000000 0.000000 0.000000
vn -1.000000 0.000000 0.000000
vn -1.000000 0.000000 0.000000
vn -1.000000 0.000000 0.000000
vn -1.000000 0.000000 0.000000
vn -1.000000 0.000000 0.000000
vn -1.000000 0.000000 0.000000
vn -1.000000 0.000000 0.000000
vn -1.000000 0.000000 0.000000
vn -1.000000 0.000000 0.000000
vn -1.000000 0.000000 0.000000
vn -1.000000 0.000000 0.000000
vn -1.000000 0.000000 0.000000
vn -1.000000 0.000000 0.000000
vn -1.000000 0.000000 0.000000
vn -1.000000 0.000000 0.000000
vn -1.000000 0.000000 0.000000
vn -1.000000 0.000000 0.000000
vn -1.000000 0.000000 0.000000
vn -1.000000 0.000000 0.000000
vn -1.000000 0.000000 0.000000
vn -1.000000 0.000000 0.000000
vn -1.000000 0.000000 0.000000
vn -1.000000 0.000000 0.000000
vn -1.000000 0.000000 0.000000
vn -1.000000 0.000000 0.000000
vn -1.000000 0.000000 0.000000
vn -1.000000 0.000000 0.000000
vn -1.000000 0.000000 0.000000
vn -1.000000 0.000000 0.000000
vn -1.000000 0.000000 0.000000
vn -1.000000 0.000000 0.000000
vn -1.000000 0.000000 0.000000
vn -1.000000 0.000000 0.000000
vn -1.000000 0.000000 0.000000
vn -1.000000 0.000000 0.000000
vn -1.000000 0.000000 0.000000
vn -1.000000 0.000000 0.000000
vn -1.000000 0.000000 0.000000
vn -1.000000 0.000000 0.000000
vn -1.000000 0.000000 0.000000
vn 0.000000 0.258819 0.965926
vn 0.000000 0.382683 0.923880
vn 0.000000 0.382683 0.923880
vn 0.000000 0.258819 0.965926
vn 0.000000 0.500000 0.866025
vn 0.000000 0.500000 0.866025
vn 0.000000 0.608761 0.793353
vn 0.000000 0.608761 0.793353
vn 0.000000 0.707107 0.707107
vn 0.000000 0.707107 0.707107
vn 0.000000 0.793353 0.608761
vn 0.000000 0.793353 0.608761
vn 0.000000 0.866025 0.500000
vn 0.000000 0.866025 0.500000
vn 0.000000 0.923880 0.382683
vn 0.000000 0.923880 0.382683
vn 0.000000 0.965926 0.258819
vn 0.000000 0.965926 0.258819
vn 0.000000 0.991445 0.130526
vn 0.000000 0.991445 0.130526
vn 0.000000 1.000000 -0.000000
vn 0.000000 1.000000 -0.000000
vn -0.000000 0.991445 -0.130526
vn -0.000000 0.991445 -0.130526
vn -0.000000 0.965926 -0.258819
vn -0.000000 0.965926 -0.258819
vn -0.000000 0.923880 -0.382683
vn -0.000000 0.923880 -0.382683
vn -0.000000 0.866025 -0.500000
vn -0.000000 0.866025 -0.500000
vn -0.000000 0.793353 -0.608761
vn -0.000000 0.793353 -0.608761
vn -0.000000 0.707107 -0.707107
vn -0.000000 0.707107 -0.707107
vn -0.000000 0.608761 -0.793353
vn -0.000000 0.608761 -0.793353
vn -0.000000 0.500000 -0.866025
vn -0.000000 0.500000 -0.866025
vn -0.000000 0.382683 -0.923880
vn -0.000000 0.382683 -0.923880
vn -0.000000 0.258819 -0.965926
vn -0.000000 0.258819 -0.965926
vn -0.000000 0.130526 -0.991445
vn -0.000000 0.130526 -0.991445
vn -0.000000 -0.000000 -1.000000
vn -0.000000 -0.000000 -1.000000
vn -0.000000 -0.130526 -0.991445
vn -0.000000 -0.130526 -0.991445
vn -0.000000 -0.258819 -0.965926
vn -0.000000 -0.258819 -0.965926
vn -0.000000 -0.382683 -0.923880
vn -0.000000 -0.382683 -0.923880
vn -0.000000 -0.500000 -0.866025
vn -0.000000 -0.500000 -0.866025
vn -0.000000 -0.608761 -0.793353
vn -0.000000 -0.608761 -0.793353
vn -0.000000 -0.707107 -0.707107
vn -0.000000 -0.707107 -0.707107
vn -0.000000 -0.793353 -0.608761
vn -0.000000 -0.793353 -0.608761
vn -0.000000 -0.866025 -0.500000
vn -0.000000 -0.866025 -0.500000
vn -0.000000 -0.923880 -0.382683
vn -0.000000 -0.923880 -0.382683
vn -0.000000 -0.965926 -0.258819
vn -0.000000 -0.965926 -0.258819
vn -0.000000 -0.991445 -0.130526
vn -0.000000 -0.991445 -0.130526
vn -0.000000 -1.000000 0.000000
vn -0.000000 -1.000000 0.000000
vn 0.000000 -0.991445 0.130526
vn 0.000000 -0.991445 0.130526
vn 0.000000 -0.965926 0.258819
vn 0.000000 -0.965926 0.258819
vn 0.000000 -0.923880 0.382683
vn 0.000000 -0.923880 0.382683
vn 0.000000 -0.866025 0.500000
vn 0.000000 -0.866025 0.500000
vn 0.000000 -0.793353 0.608761
vn 0.000000 -0.793353 0.608761
vn 0.000000 -0.707107 0.707107
vn 0.000000 -0.707107 0.707107
vn 0.000000 -0.608761 0.793353
vn 0.000000 -0.608761 0.793353
vn 0.000000 -0.500000 0.866025
vn 0.000000 -0.500000 0.866025
vn 0.000000 -0.382683 0.923880
vn 0.000000 -0.382683 0.923880
vn 0.000000 -0.258819 0.965926
vn 0.000000 -0.258819 0.965926
vn 0.000000 -0.130526 0.991445
vn 0.000000 -0.130526 0.991445
vn 0.000000 0.000000 1.000000
vn 0.000000 0.000000 1.000000
vn 0.000000 0.130526 0.991445
vn 0.000000 0.130526 0.991445
vn 1.000000 -0.000000 -0.000000
vn 1.000000 -0.000000 -0.000000
vn 1.000000 -0.000000 -0.000000
vn 1.000000 -0.000000 -0.000000
vn 1.000000 -0.000000 -0.000000
vn 1.000000 -0.000000 -0.000000
vn 1.000000 -0.000000 -0.000000
vn 1.000000 -0.000000 -0.000000
vn 1.000000 -0.000000 -0.000000
vn 1.000000 -0.000000 -0.000000
vn 1.000000 -0.000000 -0.000000
vn 1.000000 -0.000000 -0.000000
vn 1.000000 -0.000000 -0.000000
vn 1.000000 -0.000000 -0.000000
vn 1.000000 -0.000000 -0.000000
vn 1.000000 -0.000000 -0.000000
vn 1.000000 -0.000000 -0.000000
vn 1.000000 -0.000000 -0.000000
vn 1.000000 -0.000000 -0.000000
vn 1.000000 -0.000000 -0.000000
vn 1.000000 -0.000000 -0.000000
vn 1.000000 -0.000000 -0.000000
vn 1.000000 -0.000000 -0.000000
vn 1.000000 -0.000000 -0.000000
vn 1.000000 -0.000000 -0.000000
vn 1.000000 -0.000000 -0.000000
vn 1.000000 -0.000000 -0.000000
vn 1.000000 -0.000000 -0.000000
vn 1.000000 -0.000000 -0.000000
vn 1.000000 -0.000000 -0.000000
vn 1.000000 -0.000000 -0.000000
vn 1.000000 -0.000000 -0.000000
vn 1.000000 -0.000000 -0.000000
vn 1.000000 -0.000000 -0.000000
vn 1.000000 -0.000000 -0.000000
vn 1.000000 -0.000000 -0.000000
vn 1.000000 -0.000000 -0.000000
vn 1.000000 -0.000000 -0.000000
vn 1.000000 -0.000000 -0.000000
vn 1.000000 -0.000000 -0.000000
vn 1.000000 -0.000000 -0.000000
vn 1.000000 -0.000000 -0.000000
vn 1.000000 -0.000000 -0.000000
vn 1.000000 -0.000000 -0.000000
vn 1.000000 -0.000000 -0.000000
vn 1.000000 -0.000000 -0.000000
vn 1.000000 -0.000000 -0.000000
vn 1.000000 -0.000000 -0.000000
usemtl material
f 1//1 2//2 3//3
f 2//2 1//1 4//4
f 4//4 1//1 5//5
f 4//4 5//5 6//6
f 6//6 5//5 7//7
f 6//6 7//7 8//8
f 8//8 7//7 9//9
f 8//8 9//9 10//10
f 10//10 9//9 11//11
f 10//10 11//11 12//12
f 12//12 11//11 13//13
f 12//12 13//13 14//14
f 14//14 13//13 15//15
f 14//14 15//15 16//16
f 16//16 15//15 17//17
f 16//16 17//17 18//18
f 18//18 17//17 19//19
f 18//18 19//19 20//20
f 20//20 19//19 21//21
f 20//20 21//21 22//22
f 22//22 21//21 23//23
f 22//22 23//23 24//24
f 24//24 23//23 25//25
f 24//24 25//25 26//26
f 26//26 25//25 27//27
f 26//26 27//27 28//28
f 28//28 27//27 29//29
f 28//28 29//29 30//30
f 30//30 29//29 31//31
f 30//30 31//31 32//32
f 32//32 31//31 33//33
f 32//32 33//33 34//34
f 34//34 33//33 35//35
f 34//34 35//35 36//36
f 36//36 35//35 37//37
f 36//36 37//37 38//38
f 38//38 37//37 39//39
f 38//38 39//39 40//40
f 40//40 39//39 41//41
f 40//40 41//41 42//42
f 42//42 41//41 43//43
f 42//42 43//43 44//44
f 44//44 43//43 45//45
f 44//44 45//45 46//46
f 46//46 45//45 47//47
f 46//46 47//47 48//48
f 49//49 50//50 51//51
f 50//50 49//49 52//52
f 51//51 53//53 54//54
f 53//53 51//51 50//50
f 54//54 55//55 56//56
f 55//55 54//54 53//53
f 56//56 57//57 58//58
f 57//57 56//56 55//55
f 59//59 57//57 60//60
f 57//57 59//59 58//58
f 61//61 60//60 62//62
f 60//60 61//61 59//59
f 63//63 62//62 64//64
f 62//62 63//63 61//61
f 65//65 64//64 66//66
f 64//64 65//65 63//63
f 67//67 66//66 68//68
f 66//66 67//67 65//65
f 69//69 68//68 70//70
f 68//68 69//69 67//67
f 71//71 70//70 72//72
f 70//70 71//71 69//69
f 73//73 72//72 74//74
f 72//72 73//73 71//71
f 75//75 74//74 76//76
f 74//74 75//75 73//73
f 77//77 76//76 78//78
f 76//76 77//77 75//75
f 79//79 78//78 80//80
f 78//78 79//79 77//77
f 81//81 80//80 82//82
f 80//80 81//81 79//79
f 81//81 83//83 84//84
f 83//83 81//81 82//82
f 84//84 85//85 86//86
f 85//85 84//84 83//83
f 86//86 87//87 88//88
f 87//87 86//86 85//85
f 88//88 89//89 90//90
f 89//89 88//88 87//87
f 90//90 91//91 92//92
f 91//91 90//90 89//89
f 92//92 93//93 94//94
f 93//93 92//92 91//91
f 93//93 95//95 94//94
f 95//95 93//93 96//96
f 96//96 97//97 95//95
f 97//97 96//96 98//98
f 98//98 99//99 97//97
f 99//99 98//98 100//100
f 100//100 101//101 99//99
f 101//101 100//100 102//102
f 102//102 103//103 101//101
f 103//103 102//102 104//104
f 104//104 105//105 103//103
f 105//105 104//104 106//106
f 107//107 105//105 106//106
f 105//105 107//107 108//108
f 109//109 108//108 107//107
f 108//108 109//109 110//110
f 111//111 110//110 109//109
f 110//110 111//111 112//112
f 113//113 112//112 111//111
f 112//112 113//113 114//114
f 115//115 114//114 113//113
f 114//114 115//115 116//116
f 117//117 116//116 115//115
f 116//116 117//117 118//118
f 119//119 118//118 117//117
f 118//118 119//119 120//120
f 121//121 120//120 119//119
f 120//120 121//121 122//122
f 123//123 122//122 121//121
f 122//122 123//123 124//124
f 125//125 124//124 123//123
f 124//124 125//125 126//126
f 127//127 126//126 125//125
f 126//126 127//127 128//128
f 129//129 128//128 127//127
f 128//128 129//129 130//130
f 129//129 131//131 130//130
f 131//131 129//129 132//132
f 132//132 133//133 131//131
f 133//133 132//132 134//134
f 134//134 135//135 133//133
f 135//135 134//134 136//136
f 136//136 137//137 135//135
f 137//137 136//136 138//138
f 138//138 139//139 137//137
f 139//139 138//138 140//140
f 140//140 141//141 139//139
f 141//141 140//140 142//142
f 141//141 143//143 144//144
f 143//143 141//141 142//142
f 144//144 52//52 49//49
f 52//52 144//144 143//143
f 145//145 146//146 147//147
f 146//146 145//145 148//148
f 146//146 148//148 149//149
f 149//149 148//148 150//150
f 149//149 150//150 151//151
f 151//151 150//150 152//152
f 151//151 152//152 153//153
f 153//153 152//152 154//154
f 153//153 154//154 155//155
f 155//155 154//154 156//156
f 155//155 156//156 157//157
f 157//157 156//156 158//158
f 157//157 158//158 159//159
f 159//159 158//158 160//160
f 159//159 160//160 161//161
f 161//161 160//160 162//162
f 161//161 162//162 163//163
f 163//163 162//162 164//164
f 163//163 164//164 165//165
f 165//165 164//164 166//166
f 165//165 166//166 167//167
f 167//167 166//166 168//168
f 167//167 168//168 169//169
f 169//169 168//168 170//170
f 169//169 170//170 171//171
f 171//171 170//170 172//172
f 171//171 172//172 173//173
f 173//173 172//172 174//174
f 173//173 174//174 175//175
f 175//175 174//174 176//176
f 175//175 176//176 177//177
f 177//177 176//176 178//178
f 177//177 178//178 179//179
f 179//179 178//178 180//180
f 179//179 180//180 181//181
f 181//181 180//180 182//182
f 181//181 182//182 183//183
f 183//183 182//182 184//184
f 183//183 184//184 185//185
f 185//185 184//184 186//186
f 185//185 186//186 187//187
f 187//187 186//186 188//188
f 187//187 188//188 189//189
f 189//189 188//188 190//190
f 189//189 190//190 191//191
f 191//191 190//190 192//192
